# File created by Blade
# Date/Time:  Thu Sep 25 17:33:50 2014
# Frame Rate: 120.000 fps
#------------------------------------------------------
:FULLY-SPECIFIED
:DEGREES
2691
root 0.128508 32.764574 -1.937727 14.446688 -1.877433 -1.398435
Spine -8.773369 3.941563 -5.634462
Head -18.749839 -6.044962 9.182932
LeftShoulder -7.035725 23.753363 14.024703
LeftArm 40.165869 37.177012 -55.945184
LeftForeArm 32.184646 -0.000000 105.691092
LeftHand -27.717942 -0.000000 22.660016
LeftHandThumb1 -26.253704 0.000000 33.147579
RightShoulder -16.971821 7.226210 -22.365564
RightArm -8.117311 -48.866468 92.718385
RightForeArm -23.694146 -0.000000 107.235568
RightHand -0.954630 -0.000000 -18.181671
RightHandThumb1 -24.326973 -0.000000 -32.862282
LeftUpLeg -13.383906 9.594494 -2.021380
LeftLeg 1.423017 -0.000000 -0.000000
LeftFoot -14.303476 19.548731 -16.835527
LeftToeBase 5.954260 -0.000000 -0.000000
RightUpLeg -16.341946 -2.743585 -2.001548
RightLeg 8.818053 -0.000000 -0.000000
RightFoot -9.551250 -2.782850 -5.876348
RightToeBase -1.187806 -0.000000 0.000000
2692
root 0.134717 32.764585 -1.941914 14.423793 -1.986338 -1.399956
Spine -8.768328 3.970509 -5.710321
Head -18.803261 -6.040220 9.274908
LeftShoulder -6.947317 23.687229 14.097034
LeftArm 40.121691 37.207699 -56.074160
LeftForeArm 32.160082 -0.000000 105.531561
LeftHand -27.553657 -0.000000 22.658109
LeftHandThumb1 -26.253704 0.000000 33.147579
RightShoulder -16.931243 7.287923 -22.380682
RightArm -8.220015 -48.952534 92.912905
RightForeArm -24.010790 -0.000000 106.373494
RightHand -0.858293 -0.000000 -18.086470
RightHandThumb1 -24.326973 -0.000000 -32.862282
LeftUpLeg -13.373565 9.698648 -2.051898
LeftLeg 1.447445 -0.000000 -0.000000
LeftFoot -14.309827 19.534692 -16.828220
LeftToeBase 5.909053 -0.000000 -0.000000
RightUpLeg -16.384054 -2.699938 -2.021369
RightLeg 8.916501 -0.000000 -0.000000
RightFoot -9.527008 -2.840501 -6.049318
RightToeBase -1.364889 -0.000000 0.000000
2693
root 0.140835 32.764487 -1.945949 14.393942 -2.096477 -1.395792
Spine -8.743270 3.994888 -5.791926
Head -18.866693 -6.014078 9.373427
LeftShoulder -6.879757 23.568506 14.133082
LeftArm 40.070589 37.272673 -56.150138
LeftForeArm 32.065960 -0.000000 105.374754
LeftHand -27.553582 0.000000 22.685592
LeftHandThumb1 -26.253704 0.000000 33.147579
RightShoulder -16.903725 7.386548 -22.425367
RightArm -8.383177 -49.059304 93.209325
RightForeArm -24.460318 -0.000000 105.382795
RightHand -0.891480 0.000000 -18.127705
RightHandThumb1 -24.326973 -0.000000 -32.862282
LeftUpLeg -13.345738 9.750216 -2.074890
LeftLeg 1.458953 -0.000000 -0.000000
LeftFoot -14.342223 19.569630 -16.849020
LeftToeBase 5.941025 -0.000000 -0.000000
RightUpLeg -16.421830 -2.694467 -2.033437
RightLeg 8.994087 -0.000000 -0.000000
RightFoot -9.573409 -2.711484 -5.994850
RightToeBase -1.245839 -0.000000 0.000000
2694
root 0.147032 32.764573 -1.950726 14.368361 -2.198277 -1.397314
Spine -8.718882 4.004634 -5.870514
Head -18.939308 -5.964285 9.504268
LeftShoulder -6.820364 23.468964 14.177643
LeftArm 40.105575 37.371163 -56.144072
LeftForeArm 31.902610 -0.000000 105.118193
LeftHand -27.485643 -0.000000 22.792955
LeftHandThumb1 -26.253704 0.000000 33.147579
RightShoulder -16.877912 7.436705 -22.443439
RightArm -8.417475 -49.137486 93.375424
RightForeArm -24.520020 0.000000 104.290453
RightHand -0.664300 0.000000 -17.649992
RightHandThumb1 -24.326973 -0.000000 -32.862282
LeftUpLeg -13.322145 9.808779 -2.097017
LeftLeg 1.459510 -0.000000 -0.000000
LeftFoot -14.337079 19.608353 -16.837339
LeftToeBase 5.905888 -0.000000 -0.000000
RightUpLeg -16.470098 -2.679042 -2.048553
RightLeg 9.097016 -0.000000 -0.000000
RightFoot -9.590827 -2.639751 -5.987378
RightToeBase -1.219836 -0.000000 0.000000
2695
root 0.153601 32.764245 -1.955900 14.345355 -2.289896 -1.389699
Spine -8.702185 3.985230 -5.959074
Head -18.998187 -5.939125 9.646164
LeftShoulder -6.766555 23.384853 14.227137
LeftArm 40.120342 37.479573 -56.171123
LeftForeArm 31.897380 0.000000 104.799559
LeftHand -27.678838 -0.000000 22.746057
LeftHandThumb1 -26.253704 0.000000 33.147579
RightShoulder -16.835556 7.512777 -22.476057
RightArm -8.433748 -49.304891 93.546058
RightForeArm -24.650838 -0.000000 103.073879
RightHand -0.603872 -0.000000 -17.584725
RightHandThumb1 -24.326973 -0.000000 -32.862282
LeftUpLeg -13.301508 9.841362 -2.121007
LeftLeg 1.462563 -0.000000 -0.000000
LeftFoot -14.354227 19.650169 -16.854268
LeftToeBase 5.914385 -0.000000 -0.000000
RightUpLeg -16.522243 -2.652625 -2.072061
RightLeg 9.206510 -0.000000 -0.000000
RightFoot -9.615514 -2.616190 -6.036166
RightToeBase -1.219256 -0.000000 0.000000
2696
root 0.159523 32.764725 -1.962370 14.332508 -2.391144 -1.392543
Spine -8.701233 3.982474 -6.038924
Head -19.038405 -5.931291 9.760312
LeftShoulder -6.704368 23.312794 14.287340
LeftArm 40.141998 37.557915 -56.203688
LeftForeArm 31.835366 -0.000000 104.381853
LeftHand -27.668009 -0.000000 23.317171
LeftHandThumb1 -26.253704 0.000000 33.147579
RightShoulder -16.784180 7.617235 -22.504769
RightArm -8.528473 -49.509897 93.809357
RightForeArm -24.851874 -0.000000 101.739067
RightHand -0.847243 -0.000000 -17.620874
RightHandThumb1 -24.326973 -0.000000 -32.862282
LeftUpLeg -13.288114 9.873103 -2.133790
LeftLeg 1.457719 -0.000000 -0.000000
LeftFoot -14.360190 19.695787 -16.837635
LeftToeBase 5.966471 -0.000000 -0.000000
RightUpLeg -16.599515 -2.603085 -2.089995
RightLeg 9.341428 -0.000000 -0.000000
RightFoot -9.640661 -2.588715 -6.038429
RightToeBase -1.213530 -0.000000 0.000000
2697
root 0.164764 32.763957 -1.967168 14.305297 -2.487328 -1.392352
Spine -8.688678 3.983773 -6.138569
Head -19.082335 -5.922851 9.913889
LeftShoulder -6.655272 23.288592 14.365418
LeftArm 40.226043 37.583279 -56.198550
LeftForeArm 31.208838 -0.000000 103.910160
LeftHand -27.512402 -0.000000 22.969713
LeftHandThumb1 -26.253704 0.000000 33.147579
RightShoulder -16.738620 7.709671 -22.480694
RightArm -8.579372 -49.741200 93.996828
RightForeArm -24.991002 -0.000000 100.285569
RightHand -0.933674 -0.000000 -18.065222
RightHandThumb1 -24.326973 -0.000000 -32.862282
LeftUpLeg -13.249527 9.917434 -2.154195
LeftLeg 1.431376 -0.000000 -0.000000
LeftFoot -14.362288 19.764767 -16.795349
LeftToeBase 5.955778 -0.000000 -0.000000
RightUpLeg -16.653908 -2.556136 -2.110045
RightLeg 9.460857 -0.000000 -0.000000
RightFoot -9.658545 -2.561969 -6.035892
RightToeBase -1.255502 -0.000000 0.000000
2698
root 0.169139 32.763469 -1.972171 14.281405 -2.585904 -1.390404
Spine -8.683393 4.022268 -6.255329
Head -19.119224 -5.969859 10.097377
LeftShoulder -6.599505 23.245796 14.473926
LeftArm 40.434097 37.719993 -56.105391
LeftForeArm 30.928970 -0.000000 103.165901
LeftHand -27.356917 0.000000 23.024658
LeftHandThumb1 -26.253704 0.000000 33.147579
RightShoulder -16.742188 7.794798 -22.524620
RightArm -8.602923 -49.826880 94.179404
RightForeArm -24.327914 -0.000000 98.724971
RightHand -0.674983 -0.000000 -17.357412
RightHandThumb1 -24.326973 -0.000000 -32.862282
LeftUpLeg -13.225959 9.989256 -2.174094
LeftLeg 1.428756 -0.000000 -0.000000
LeftFoot -14.377839 19.750191 -16.847557
LeftToeBase 5.967695 -0.000000 -0.000000
RightUpLeg -16.707535 -2.454069 -2.144127
RightLeg 9.577175 -0.000000 -0.000000
RightFoot -9.685357 -2.587046 -6.046300
RightToeBase -1.242970 -0.000000 0.000000
2699
root 0.175484 32.763271 -1.978327 14.254488 -2.676401 -1.386387
Spine -8.674521 4.040799 -6.358050
Head -19.141937 -6.003494 10.243526
LeftShoulder -6.564736 23.179659 14.548935
LeftArm 40.646121 37.853818 -55.974041
LeftForeArm 30.381689 -0.000000 102.376698
LeftHand -27.541313 -0.000000 24.536367
LeftHandThumb1 -26.253704 0.000000 33.147579
RightShoulder -16.684119 7.910889 -22.511735
RightArm -8.703269 -49.854149 94.374147
RightForeArm -24.326545 -0.000000 96.988341
RightHand -0.110059 -0.000000 -16.658311
RightHandThumb1 -24.326973 -0.000000 -32.862282
LeftUpLeg -13.186577 10.015813 -2.196946
LeftLeg 1.396841 -0.000000 -0.000000
LeftFoot -14.367242 19.823995 -16.813626
LeftToeBase 5.917463 -0.000000 -0.000000
RightUpLeg -16.774287 -2.384781 -2.176410
RightLeg 9.720392 -0.000000 -0.000000
RightFoot -9.705034 -2.574552 -6.011998
RightToeBase -1.288470 -0.000000 0.000000
2700
root 0.176657 32.761897 -1.982066 14.243165 -2.764344 -1.412328
Spine -8.707090 4.084807 -6.443953
Head -19.141069 -6.057136 10.381125
LeftShoulder -6.511795 23.093586 14.640938
LeftArm 40.819510 38.013792 -55.834573
LeftForeArm 29.981391 -0.000000 101.484812
LeftHand -27.603041 0.000000 24.569267
LeftHandThumb1 -26.253704 0.000000 33.147579
RightShoulder -16.640540 8.020096 -22.539107
RightArm -8.920809 -50.094572 94.761778
RightForeArm -24.762396 -0.000000 95.209556
RightHand -0.696128 -0.000000 -16.944884
RightHandThumb1 -24.326973 -0.000000 -32.862282
LeftUpLeg -13.166268 10.093438 -2.187128
LeftLeg 1.382034 -0.000000 -0.000000
LeftFoot -14.382770 19.819436 -16.822604
LeftToeBase 5.922825 -0.000000 -0.000000
RightUpLeg -16.852211 -2.302969 -2.163337
RightLeg 9.866031 -0.000000 -0.000000
RightFoot -9.727225 -2.618638 -6.042785
RightToeBase -1.295927 -0.000000 0.000000
